name ./resultDataOpenSim/trcMotMarkerGrf/sub10/grf-13-02.mot
datacolumns 19
datarows 17
range 1.40400000 1.46800000
endheader

                time	     ground_force_vx	     ground_force_vy	     ground_force_vz	     ground_force_px	     ground_force_py	     ground_force_pz	   l_ground_force_vx	   l_ground_force_vy	   l_ground_force_vz	   l_ground_force_px	   l_ground_force_py	   l_ground_force_pz	     ground_torque_x	     ground_torque_y	     ground_torque_z	   l_ground_torque_x	   l_ground_torque_y	   l_ground_torque_z	
          1.40400000	        -30.15950137	        445.66732485	        -31.45560345	          0.84414895	          0.00000000	          0.02152164	          0.00000000	          0.00000000	          0.00000000	          0.00000000	          0.00000000	          0.00000000	          0.00000000	          2.64213282	          0.00000000	          0.00000000	          0.00000000	          0.00000000	
          1.40800000	        -28.82077705	        442.76066856	        -29.92511110	          0.84494101	          0.00000000	          0.02134684	          0.00000000	          0.00000000	          0.00000000	          0.00000000	          0.00000000	          0.00000000	          0.00000000	          2.71676265	          0.00000000	          0.00000000	          0.00000000	          0.00000000	
          1.41200000	        -27.24108919	        440.21748736	        -28.16190863	          0.84559698	          0.00000000	          0.02117842	          0.00000000	          0.00000000	          0.00000000	          0.00000000	          0.00000000	          0.00000000	          0.00000000	          2.77004042	          0.00000000	          0.00000000	          0.00000000	          0.00000000	
          1.41600000	        -25.46359936	        438.01635589	        -26.51379118	          0.84613733	          0.00000000	          0.02101565	          0.00000000	          0.00000000	          0.00000000	          0.00000000	          0.00000000	          0.00000000	          0.00000000	          2.81436187	          0.00000000	          0.00000000	          0.00000000	          0.00000000	
          1.42000000	        -23.58495716	        436.11988745	        -25.32529220	          0.84658519	          0.00000000	          0.02086418	          0.00000000	          0.00000000	          0.00000000	          0.00000000	          0.00000000	          0.00000000	          0.00000000	          2.86166752	          0.00000000	          0.00000000	          0.00000000	          0.00000000	
          1.42400000	        -21.71710010	        434.47051704	        -24.85767741	          0.84697567	          0.00000000	          0.02073369	          0.00000000	          0.00000000	          0.00000000	          0.00000000	          0.00000000	          0.00000000	          0.00000000	          2.92297211	          0.00000000	          0.00000000	          0.00000000	          0.00000000	
          1.42800000	        -19.95474425	        433.00148625	        -25.23326892	          0.84733651	          0.00000000	          0.02063192	          0.00000000	          0.00000000	          0.00000000	          0.00000000	          0.00000000	          0.00000000	          0.00000000	          3.00700258	          0.00000000	          0.00000000	          0.00000000	          0.00000000	
          1.43200000	        -18.35103472	        431.65149324	        -26.41706547	          0.84766738	          0.00000000	          0.02056270	          0.00000000	          0.00000000	          0.00000000	          0.00000000	          0.00000000	          0.00000000	          0.00000000	          3.11791218	          0.00000000	          0.00000000	          0.00000000	          0.00000000	
          1.43600000	        -16.89435931	        430.37944730	        -28.23344948	          0.84796940	          0.00000000	          0.02052406	          0.00000000	          0.00000000	          0.00000000	          0.00000000	          0.00000000	          0.00000000	          0.00000000	          3.25335278	          0.00000000	          0.00000000	          0.00000000	          0.00000000	
          1.44000000	        -15.49780183	        429.16644996	        -30.40736776	          0.84822415	          0.00000000	          0.02050506	          0.00000000	          0.00000000	          0.00000000	          0.00000000	          0.00000000	          0.00000000	          0.00000000	          3.40446306	          0.00000000	          0.00000000	          0.00000000	          0.00000000	
          1.44400000	        -14.02025627	        427.99437305	        -32.61595405	          0.84839929	          0.00000000	          0.02048679	          0.00000000	          0.00000000	          0.00000000	          0.00000000	          0.00000000	          0.00000000	          0.00000000	          3.55831696	          0.00000000	          0.00000000	          0.00000000	          0.00000000	
          1.44800000	        -12.31394033	        426.83026741	        -34.53883692	          0.84847268	          0.00000000	          0.02044871	          0.00000000	          0.00000000	          0.00000000	          0.00000000	          0.00000000	          0.00000000	          0.00000000	          3.70187214	          0.00000000	          0.00000000	          0.00000000	          0.00000000	
          1.45200000	        -10.27458097	        425.64631969	        -35.90451368	          0.84842570	          0.00000000	          0.02037527	          0.00000000	          0.00000000	          0.00000000	          0.00000000	          0.00000000	          0.00000000	          0.00000000	          3.82560960	          0.00000000	          0.00000000	          0.00000000	          0.00000000	
          1.45600000	         -7.87134051	        424.45311635	        -36.53415910	          0.84826176	          0.00000000	          0.02025669	          0.00000000	          0.00000000	          0.00000000	          0.00000000	          0.00000000	          0.00000000	          0.00000000	          3.92544862	          0.00000000	          0.00000000	          0.00000000	          0.00000000	
          1.46000000	         -5.14776217	        423.30618886	        -36.37732034	          0.84801699	          0.00000000	          0.02008945	          0.00000000	          0.00000000	          0.00000000	          0.00000000	          0.00000000	          0.00000000	          0.00000000	          4.00272917	          0.00000000	          0.00000000	          0.00000000	          0.00000000	
          1.46400000	         -2.20374087	        422.28297665	        -35.52611520	          0.84772692	          0.00000000	          0.01987695	          0.00000000	          0.00000000	          0.00000000	          0.00000000	          0.00000000	          0.00000000	          0.00000000	          4.06309312	          0.00000000	          0.00000000	          0.00000000	          0.00000000	
          1.46800000	          0.83066607	        421.46685648	        -34.19682433	          0.84741622	          0.00000000	          0.01962564	          0.00000000	          0.00000000	          0.00000000	          0.00000000	          0.00000000	          0.00000000	          0.00000000	          4.11527423	          0.00000000	          0.00000000	          0.00000000	          0.00000000	
